<?xml version="1.0" encoding="UTF-8" standalone="no"?>
<!DOCTYPE svg PUBLIC "-//W3C//DTD SVG 1.1//EN"
 "http://www.w3.org/Graphics/SVG/1.1/DTD/svg11.dtd">
<!-- Generated by graphviz version 2.40.1 (20161225.0304)
 -->
<!-- Title: dependencies Pages: 1 -->
<svg width="504pt" height="284pt"
 viewBox="0.00 0.00 504.00 284.00" xmlns="http://www.w3.org/2000/svg" xmlns:xlink="http://www.w3.org/1999/xlink">
<g id="graph0" class="graph" transform="scale(1 1) rotate(0) translate(4 280)">
<title>dependencies</title>
<polygon fill="#ffffff" stroke="transparent" points="-4,4 -4,-280 500,-280 500,4 -4,4"/>
<text text-anchor="start" x="227.0091" y="-42.4" font-family="sans-serif" font-weight="bold" font-size="14.00" fill="#000000">Legend</text>
<polygon fill="#ffffb3" stroke="transparent" points="14,-10 14,-30 34,-30 34,-10 14,-10"/>
<text text-anchor="start" x="37.629" y="-15.4" font-family="sans-serif" font-size="14.00" fill="#000000"> &#160;Declarations</text>
<polygon fill="#8dd3c7" stroke="transparent" points="127,-10 127,-30 147,-30 147,-10 127,-10"/>
<text text-anchor="start" x="150.7251" y="-15.4" font-family="sans-serif" font-size="14.00" fill="#000000"> &#160;Module</text>
<polygon fill="#80b1d3" stroke="transparent" points="213,-10 213,-30 233,-30 233,-10 213,-10"/>
<text text-anchor="start" x="236.7812" y="-15.4" font-family="sans-serif" font-size="14.00" fill="#000000"> &#160;Bootstrap</text>
<polygon fill="#fdb462" stroke="transparent" points="310,-10 310,-30 330,-30 330,-10 310,-10"/>
<text text-anchor="start" x="333.6732" y="-15.4" font-family="sans-serif" font-size="14.00" fill="#000000"> &#160;Providers</text>
<polygon fill="#fb8072" stroke="transparent" points="406,-10 406,-30 426,-30 426,-10 406,-10"/>
<text text-anchor="start" x="429.7258" y="-15.4" font-family="sans-serif" font-size="14.00" fill="#000000"> &#160;Exports</text>
<g id="clust1" class="cluster">
<title>cluster_NgxMagicSearchModule</title>
<polygon fill="none" stroke="#000000" stroke-dasharray="1,5" points="47,-70 47,-268 449,-268 449,-70 47,-70"/>
</g>
<g id="clust2" class="cluster">
<title>cluster_NgxMagicSearchModule_declarations</title>
<polygon fill="none" stroke="#000000" points="58,-78 58,-130 438,-130 438,-78 58,-78"/>
</g>
<g id="clust6" class="cluster">
<title>cluster_NgxMagicSearchModule_exports</title>
<polygon fill="none" stroke="#000000" points="55,-208 55,-260 441,-260 441,-208 55,-208"/>
</g>
<!-- NgxMagicSearchComponent -->
<g id="node1" class="node">
<title>NgxMagicSearchComponent</title>
<polygon fill="#ffffb3" stroke="#000000" points="429.7906,-122 250.2094,-122 250.2094,-86 429.7906,-86 429.7906,-122"/>
<text text-anchor="middle" x="340" y="-99.8" font-family="Times,serif" font-size="14.00" fill="#000000">NgxMagicSearchComponent</text>
</g>
<!-- NgxMagicSearchModule -->
<g id="node3" class="node">
<title>NgxMagicSearchModule</title>
<polygon fill="#8dd3c7" stroke="#000000" points="228.5086,-187 225.5086,-191 204.5086,-191 201.5086,-187 71.4914,-187 71.4914,-151 228.5086,-151 228.5086,-187"/>
<text text-anchor="middle" x="150" y="-164.8" font-family="Times,serif" font-size="14.00" fill="#000000">NgxMagicSearchModule</text>
</g>
<!-- NgxMagicSearchComponent&#45;&gt;NgxMagicSearchModule -->
<g id="edge1" class="edge">
<title>NgxMagicSearchComponent&#45;&gt;NgxMagicSearchModule</title>
<path fill="none" stroke="#000000" d="M369.9651,-122.0225C369.9651,-139.3734 369.9651,-163 369.9651,-163 369.9651,-163 238.7911,-163 238.7911,-163"/>
<polygon fill="#000000" stroke="#000000" points="238.7912,-159.5001 228.7911,-163 238.7911,-166.5001 238.7912,-159.5001"/>
</g>
<!-- NgxMagicSearchDirective -->
<g id="node2" class="node">
<title>NgxMagicSearchDirective</title>
<polygon fill="#ffffb3" stroke="#000000" points="232.0408,-122 65.9592,-122 65.9592,-86 232.0408,-86 232.0408,-122"/>
<text text-anchor="middle" x="149" y="-99.8" font-family="Times,serif" font-size="14.00" fill="#000000">NgxMagicSearchDirective</text>
</g>
<!-- NgxMagicSearchDirective&#45;&gt;NgxMagicSearchModule -->
<g id="edge2" class="edge">
<title>NgxMagicSearchDirective&#45;&gt;NgxMagicSearchModule</title>
<path fill="none" stroke="#000000" d="M150,-122.1061C150,-122.1061 150,-140.991 150,-140.991"/>
<polygon fill="#000000" stroke="#000000" points="146.5001,-140.9909 150,-150.991 153.5001,-140.991 146.5001,-140.9909"/>
</g>
<!-- NgxMagicSearchComponent  -->
<g id="node4" class="node">
<title>NgxMagicSearchComponent </title>
<polygon fill="#fb8072" stroke="#000000" points="433.2905,-252 250.7095,-252 250.7095,-216 433.2905,-216 433.2905,-252"/>
<text text-anchor="middle" x="342" y="-229.8" font-family="Times,serif" font-size="14.00" fill="#000000">NgxMagicSearchComponent </text>
</g>
<!-- NgxMagicSearchModule&#45;&gt;NgxMagicSearchComponent  -->
<g id="edge3" class="edge">
<title>NgxMagicSearchModule&#45;&gt;NgxMagicSearchComponent </title>
<path fill="none" stroke="#000000" stroke-dasharray="5,2" d="M228.7338,-175C269.269,-175 310.2849,-175 310.2849,-175 310.2849,-175 310.2849,-205.9775 310.2849,-205.9775"/>
<polygon fill="#000000" stroke="#000000" points="306.785,-205.9774 310.2849,-215.9775 313.785,-205.9775 306.785,-205.9774"/>
</g>
<!-- NgxMagicSearchDirective  -->
<g id="node5" class="node">
<title>NgxMagicSearchDirective </title>
<polygon fill="#fb8072" stroke="#000000" points="232.5414,-252 63.4586,-252 63.4586,-216 232.5414,-216 232.5414,-252"/>
<text text-anchor="middle" x="148" y="-229.8" font-family="Times,serif" font-size="14.00" fill="#000000">NgxMagicSearchDirective </text>
</g>
<!-- NgxMagicSearchModule&#45;&gt;NgxMagicSearchDirective  -->
<g id="edge4" class="edge">
<title>NgxMagicSearchModule&#45;&gt;NgxMagicSearchDirective </title>
<path fill="none" stroke="#000000" stroke-dasharray="5,2" d="M150,-187.1061C150,-187.1061 150,-205.991 150,-205.991"/>
<polygon fill="#000000" stroke="#000000" points="146.5001,-205.9909 150,-215.991 153.5001,-205.991 146.5001,-205.9909"/>
</g>
</g>
</svg>
